<?xml version="1.0" standalone="no"?>
<!DOCTYPE svg PUBLIC "-//W3C//DTD SVG 20010904//EN"
 "http://www.w3.org/TR/2001/REC-SVG-20010904/DTD/svg10.dtd">
<svg version="1.0" xmlns="http://www.w3.org/2000/svg"
 width="1280.000000pt" height="720.000000pt" viewBox="0 0 1280.000000 720.000000"
 preserveAspectRatio="xMidYMid meet">
<metadata>
Created by potrace 1.15, written by Peter Selinger 2001-2017
</metadata>
<g transform="translate(0.000000,720.000000) scale(0.100000,-0.100000)"
fill="#000000" stroke="none">
<path d="M5255 5499 c-190 -8 -496 -34 -541 -45 -85 -22 -243 -793 -216 -1063
l5 -54 -484 7 c-688 10 -3486 12 -3496 3 -4 -4 -3 -16 3 -25 8 -12 2 -49 -23
-147 -82 -318 -102 -523 -85 -872 6 -137 14 -260 18 -274 l6 -26 -100 -11
c-148 -17 -149 -18 -157 -98 -9 -77 -1 -194 16 -242 9 -26 25 -40 78 -66 103
-52 164 -68 282 -71 92 -2 111 -5 150 -28 37 -21 98 -33 409 -81 396 -61 473
-77 537 -107 59 -29 80 -76 92 -214 11 -128 18 -150 60 -189 27 -26 33 -28 60
-17 42 18 67 48 91 114 12 32 24 57 25 55 2 -2 10 -33 18 -68 28 -124 60 -216
114 -330 52 -109 60 -121 156 -213 139 -134 214 -176 462 -259 99 -33 243 -35
405 -4 169 32 174 33 292 91 141 69 306 222 365 338 14 29 38 70 53 92 36 53
73 227 78 364 l3 103 67 -6 c148 -14 352 -26 445 -26 l97 0 0 -34 c0 -19 8
-44 19 -57 l19 -23 388 -7 c688 -13 1765 -33 3269 -59 314 -6 743 -13 955 -16
l385 -5 66 -39 c36 -21 83 -57 105 -78 47 -48 122 -66 152 -39 9 9 39 25 65
36 45 19 48 19 54 3 28 -83 79 -181 116 -225 24 -28 51 -66 60 -83 22 -43 143
-154 209 -191 86 -49 264 -123 347 -144 54 -14 108 -19 195 -19 183 1 258 18
411 93 118 58 140 74 244 170 131 122 121 110 194 252 96 191 115 275 118 543
0 17 4 32 7 32 4 0 25 -12 47 -27 38 -27 46 -28 150 -27 91 1 124 5 191 27 73
24 156 72 177 101 18 26 90 272 113 386 41 199 35 348 -17 421 -17 25 -75 49
-116 49 -33 0 -43 21 -69 151 -38 181 -110 362 -174 435 -15 18 -38 50 -50 73
-25 43 -30 46 -160 80 -439 115 -1263 238 -1811 270 l-146 9 -98 82 c-351 295
-999 713 -1381 890 -217 101 -888 221 -1584 285 -611 55 -1243 75 -1735 54z
m407 -236 c-51 -2 -132 -2 -180 0 -48 1 -6 3 93 3 99 0 138 -2 87 -3z m-339
-10 c-13 -2 -33 -2 -45 0 -13 2 -3 4 22 4 25 0 35 -2 23 -4z m705 0 c-38 -2
-98 -2 -135 0 -38 2 -7 3 67 3 74 0 105 -1 68 -3z m-793 -13 c-27 -12 -43 -12
-25 0 8 5 22 9 30 9 10 0 8 -3 -5 -9z m1028 3 c-23 -2 -64 -2 -90 0 -26 2 -7
3 42 3 50 0 71 -1 48 -3z m160 -10 c-18 -2 -48 -2 -65 0 -18 2 -4 4 32 4 36 0
50 -2 33 -4z m146 -25 c-1 -17 -3 -18 -6 -6 -3 12 -18 18 -51 21 l-47 3 53 2
c48 2 52 0 51 -20z m-1372 -10 c-3 -8 -6 -5 -6 6 -1 11 2 17 5 13 3 -3 4 -12
1 -19z m1926 -15 c-48 -3 -63 -8 -66 -21 -3 -12 -5 -11 -6 6 -1 21 2 22 67 20
l67 -2 -62 -3z m-1936 -95 c-2 -18 -4 -4 -4 32 0 36 2 50 4 33 2 -18 2 -48 0
-65z m1390 40 c-2 -13 -4 -5 -4 17 -1 22 1 32 4 23 2 -10 2 -28 0 -40z m490
-35 c-3 -10 -5 -2 -5 17 0 19 2 27 5 18 2 -10 2 -26 0 -35z m586 40 c-7 -2
-19 -2 -25 0 -7 3 -2 5 12 5 14 0 19 -2 13 -5z m87 -13 c20 -6 21 -8 5 -8 -11
0 -33 4 -50 8 -27 7 -27 8 -5 8 14 0 36 -4 50 -8z m63 -17 c-7 -2 -19 -2 -25
0 -7 3 -2 5 12 5 14 0 19 -2 13 -5z m-1216 -70 c-2 -16 -4 -5 -4 22 0 28 2 40
4 28 2 -13 2 -35 0 -50z m1293 57 c20 -6 21 -8 5 -8 -11 0 -31 4 -45 8 -20 6
-21 8 -5 8 11 0 31 -4 45 -8z m57 -16 c-3 -3 -12 -4 -19 -1 -8 3 -5 6 6 6 11
1 17 -2 13 -5z m-860 -51 c-3 -10 -5 -2 -5 17 0 19 2 27 5 18 2 -10 2 -26 0
-35z m961 30 c36 -9 62 -18 57 -20 -6 -1 -41 6 -80 16 -38 11 -64 20 -57 20 7
1 43 -7 80 -16z m136 -39 c26 -9 45 -18 43 -20 -2 -2 -28 5 -58 15 -30 11 -49
20 -43 20 6 1 32 -6 58 -15z m-2976 -632 c20 -35 61 -56 122 -63 l55 -6 -51
-2 c-62 -1 -110 27 -136 79 -16 31 -18 67 -16 335 l2 300 6 -310 c4 -226 8
-316 18 -333z m1399 541 c-2 -16 -4 -5 -4 22 0 28 2 40 4 28 2 -13 2 -35 0
-50z m1663 57 c8 -5 11 -10 5 -10 -5 0 -17 5 -25 10 -8 5 -10 10 -5 10 6 0 17
-5 25 -10z m50 -20 c8 -5 11 -10 5 -10 -5 0 -17 5 -25 10 -8 5 -10 10 -5 10 6
0 17 -5 25 -10z m180 -85 c61 -30 110 -57 110 -60 0 -5 -219 102 -229 111 -14
13 23 -3 119 -51z m-1883 -87 c-2 -18 -4 -4 -4 32 0 36 2 50 4 33 2 -18 2 -48
0 -65z m2043 -4 c0 -2 -9 0 -20 6 -11 6 -20 13 -20 16 0 2 9 0 20 -6 11 -6 20
-13 20 -16z m65 -39 l20 -16 -20 10 c-11 5 -29 17 -40 26 l-20 16 20 -10 c11
-5 29 -17 40 -26z m-2098 -127 c-2 -24 -4 -7 -4 37 0 44 2 63 4 43 2 -21 2
-57 0 -80z m2226 43 c7 -8 -7 -2 -30 14 -24 15 -43 30 -43 32 0 7 61 -31 73
-46z m137 -97 c0 -3 -13 4 -30 16 -16 12 -30 24 -30 26 0 3 14 -4 30 -16 17
-12 30 -24 30 -26z m49 -54 c-1 -21 -2 -21 -6 -5 -3 11 -12 29 -22 39 -15 18
-15 18 7 5 14 -9 22 -23 21 -39z m-2402 -177 c-1 -43 -3 -10 -3 72 0 83 2 118
3 78 2 -40 2 -107 0 -150z m2390 105 c-3 -8 -6 -5 -6 6 -1 11 2 17 5 13 3 -3
4 -12 1 -19z m-3549 -135 c-16 -2 -40 -2 -55 0 -16 2 -3 4 27 4 30 0 43 -2 28
-4z m120 -10 c-16 -2 -40 -2 -55 0 -16 2 -3 4 27 4 30 0 43 -2 28 -4z m140
-10 c-15 -2 -42 -2 -60 0 -18 2 -6 4 27 4 33 0 48 -2 33 -4z m139 -10 c-20 -2
-52 -2 -70 0 -17 2 0 4 38 4 39 0 53 -2 32 -4z m211 -10 c-27 -2 -69 -2 -95 0
-27 2 -5 3 47 3 52 0 74 -1 48 -3z m260 -10 c-32 -2 -86 -2 -120 0 -35 2 -9 3
57 3 66 0 94 -1 63 -3z m250 -10 c-27 -2 -69 -2 -95 0 -27 2 -5 3 47 3 52 0
74 -1 48 -3z"/>
</g>
</svg>
