<?xml version="1.0" standalone="no"?>
<!DOCTYPE svg PUBLIC "-//W3C//DTD SVG 20010904//EN"
 "http://www.w3.org/TR/2001/REC-SVG-20010904/DTD/svg10.dtd">
<svg version="1.0" xmlns="http://www.w3.org/2000/svg"
 width="1280.000000pt" height="867.000000pt" viewBox="0 0 1280.000000 867.000000"
 preserveAspectRatio="xMidYMid meet">
<metadata>
Created by potrace 1.15, written by Peter Selinger 2001-2017
</metadata>
<g transform="translate(0.000000,867.000000) scale(0.100000,-0.100000)"
fill="#000000" stroke="none">
<path d="M6201 5679 c-569 -30 -1155 -158 -1689 -370 -426 -170 -836 -397
-1252 -693 l-115 -82 -121 4 -120 4 -34 62 c-56 101 -184 286 -260 374 -40 46
-108 112 -151 145 -69 55 -79 66 -79 95 0 41 -35 62 -75 44 -53 -24 -12 -115
44 -97 37 11 243 -205 361 -380 49 -73 120 -209 120 -230 0 -7 -125 -11 -372
-12 -322 -2 -816 -18 -825 -27 -2 -1 6 -29 17 -61 11 -32 20 -62 20 -66 0 -5
-18 -12 -41 -15 -51 -8 -103 -43 -107 -72 -4 -24 40 -56 91 -68 l29 -6 -31
-19 c-52 -32 -33 -77 44 -103 l36 -13 -25 -17 c-54 -35 -22 -79 76 -105 l63
-16 33 -108 34 -107 -47 -52 c-96 -107 -130 -198 -100 -262 33 -70 2 -67 612
-56 301 5 640 12 753 15 113 2 217 5 233 5 22 0 27 4 27 26 0 92 60 182 135
203 45 12 265 15 265 3 0 -4 -16 -16 -35 -26 -50 -27 -132 -117 -158 -173 -18
-39 -22 -66 -22 -143 0 -109 15 -148 82 -212 61 -59 124 -83 218 -83 71 0 89
4 148 33 36 18 88 54 113 80 106 106 140 264 81 384 -15 31 -44 71 -64 89
l-37 32 59 -6 c33 -4 95 -10 139 -13 l78 -7 29 -45 c34 -53 39 -133 13 -183
-8 -17 -13 -33 -10 -36 3 -3 851 -1 1883 6 1033 6 2063 11 2288 11 l410 0 0
108 c0 95 3 113 27 164 34 72 95 131 166 160 52 21 72 23 217 22 140 -1 173
-4 259 -27 306 -82 489 -263 474 -468 -2 -33 -4 -59 -4 -60 2 -2 581 -56 584
-54 2 1 -9 70 -23 153 -14 83 -32 215 -40 294 l-15 144 133 278 132 279 93 48
c185 95 295 217 310 344 l5 45 -459 0 c-892 0 -1880 -58 -2699 -158 l-140 -17
-140 79 c-77 43 -146 85 -153 91 -12 11 -8 27 22 96 20 45 35 83 33 85 -3 3
-325 -370 -322 -374 2 -2 48 26 103 62 l101 65 108 -45 c59 -25 119 -50 132
-55 13 -5 22 -11 20 -13 -2 -2 -116 -21 -254 -41 -931 -136 -1744 -339 -2367
-591 -87 -35 -161 -64 -163 -64 -2 0 -13 21 -25 47 -66 150 -280 294 -590 396
-74 25 -150 48 -168 52 -37 8 -37 7 2 105 32 82 88 160 170 238 313 297 927
493 1816 581 365 36 497 43 991 48 l486 6 257 -349 c142 -192 263 -353 268
-359 5 -5 2 8 -7 30 -9 22 -67 166 -130 320 -62 154 -121 297 -130 319 l-16
39 123 -7 c68 -4 152 -9 188 -11 l65 -5 -40 20 c-60 29 -351 124 -505 164
-535 137 -1102 194 -1659 165z"/>
<path d="M6214 4866 l-21 -15 38 -202 c21 -112 38 -204 36 -205 -1 -1 -372
-28 -824 -60 -452 -32 -820 -60 -818 -62 2 -2 39 -16 82 -31 177 -59 314 -168
376 -299 l34 -70 44 20 c80 36 461 175 634 231 450 147 937 265 1313 318 46 6
82 13 80 14 -2 2 -116 -5 -253 -15 -138 -10 -277 -20 -310 -21 l-59 -3 -78
199 c-43 109 -80 201 -84 204 -3 3 -42 7 -87 9 -61 2 -87 -1 -103 -12z"/>
<path d="M9508 3631 c-74 -24 -116 -51 -166 -105 -63 -68 -94 -139 -100 -222
-6 -93 15 -158 73 -222 62 -69 127 -96 230 -96 69 -1 89 4 147 31 220 103 294
370 149 536 -73 83 -216 117 -333 78z"/>
</g>
</svg>
